<svg width="24" height="24" viewBox="0 0 24 24" fill="none" xmlns="http://www.w3.org/2000/svg">
<path fill-rule="evenodd" clip-rule="evenodd" d="M24 12C24 5.37254 18.6271 0 12 0C5.37294 0 0 5.37254 0 12C0 18.6267 5.37334 24 12 24C18.6267 24 24 18.6267 24 12ZM22.2 12C22.2 17.6325 17.6325 22.2 12 22.2C6.36746 22.2 1.8 17.6325 1.8 12C1.8 6.36669 6.36703 1.8 12 1.8C17.633 1.8 22.2 6.36669 22.2 12ZM14.4532 8.37158C14.7154 8.01981 14.6875 7.51976 14.3686 7.19955C14.0179 6.84732 13.4481 6.84609 13.0958 7.1968L8.91264 11.362L8.82504 11.4631C8.56225 11.816 8.59145 12.3177 8.91264 12.6375L13.0958 16.8027L13.197 16.8897C13.5499 17.1503 14.0498 17.1202 14.3686 16.8L14.4556 16.6989C14.7162 16.346 14.6861 15.846 14.3659 15.5272L10.8241 11.9986L14.3659 8.47234L14.4532 8.37158Z" fill="#111827"/>
</svg>
