<svg width="26" height="23" viewBox="0 0 26 23" fill="none" xmlns="http://www.w3.org/2000/svg">
<path d="M24.2675 22L22.6425 17.125C24.047 15.0478 24.555 12.588 24.0722 10.2029C23.5895 7.81774 22.1487 5.66959 20.0178 4.15784C17.8869 2.64609 15.2109 1.87362 12.4874 1.98405C9.76387 2.09448 7.17811 3.08029 5.21091 4.7582C3.24371 6.43611 2.02893 8.69193 1.79243 11.1062C1.55594 13.5205 2.31383 15.929 3.92518 17.8839C5.53653 19.8388 7.89169 21.207 10.5528 21.7342C13.2139 22.2614 15.9998 21.9116 18.3925 20.75L24.2675 22" stroke="#111827" stroke-width="2" stroke-linecap="round" stroke-linejoin="round"/>
<path d="M13 12V12.0125" stroke="#111827" stroke-width="2" stroke-linecap="round" stroke-linejoin="round"/>
<path d="M8 12V12.0125" stroke="#111827" stroke-width="2" stroke-linecap="round" stroke-linejoin="round"/>
<path d="M18 12V12.0125" stroke="#111827" stroke-width="2" stroke-linecap="round" stroke-linejoin="round"/>
</svg>
