<svg width="18" height="17" viewBox="0 0 18 17" fill="none" xmlns="http://www.w3.org/2000/svg">
<path fill-rule="evenodd" clip-rule="evenodd" d="M0.968657 10.4156L10.6591 0.916609C11.9059 -0.305536 13.9281 -0.305536 15.1749 0.916609L16.4692 2.18537C17.716 3.40752 17.716 5.38979 16.4692 6.61194L6.74054 16.1484C6.18424 16.6937 5.43001 16.9997 4.64277 16.9997H0.658534C0.288412 16.9997 -0.00901514 16.7008 0.000208897 16.3381L0.10043 12.3973C0.120356 11.6525 0.431266 10.9424 0.968657 10.4156ZM15.5373 3.09799L14.243 1.82923C13.5106 1.11127 12.3223 1.11127 11.5898 1.82923L10.8377 2.56647L14.7857 6.43558L15.5373 5.69875C16.2698 4.98078 16.2698 3.81595 15.5373 3.09799ZM1.89938 11.3283L9.90644 3.47938L13.8544 7.34848L5.80866 15.2352L5.70165 15.3313C5.40607 15.574 5.03159 15.7084 4.64219 15.7084L1.33286 15.7079L1.41648 12.4301C1.42755 12.0165 1.60067 11.6211 1.89938 11.3283ZM18 16.3541C18 15.9976 17.7052 15.7086 17.3415 15.7086H10.4711L10.3817 15.7145C10.0603 15.7572 9.81255 16.0273 9.81255 16.3541C9.81255 16.7106 10.1074 16.9996 10.4711 16.9996H17.3415L17.4308 16.9938C17.7523 16.951 18 16.6809 18 16.3541Z" fill="white"/>
</svg>
