<svg width="22" height="22" viewBox="0 0 22 22" fill="none" xmlns="http://www.w3.org/2000/svg">
<path d="M12 16.5556C12 16.0033 11.5523 15.5556 11 15.5556C10.4477 15.5556 10 16.0033 10 16.5556H12ZM10 16.5667C10 17.119 10.4477 17.5667 11 17.5667C11.5523 17.5667 12 17.119 12 16.5667H10ZM10.0016 12.7233C10.0329 13.2747 10.5052 13.6963 11.0566 13.6651C11.608 13.6338 12.0297 13.1614 11.9984 12.61L10.0016 12.7233ZM12.1111 11L12.4428 11.9434C12.4514 11.9404 12.4599 11.9373 12.4683 11.934L12.1111 11ZM7.98112 5.95113C7.6473 6.39111 7.73337 7.0184 8.17335 7.35222C8.61333 7.68603 9.24062 7.59997 9.57444 7.15998L7.98112 5.95113ZM20 11C20 15.9706 15.9706 20 11 20V22C17.0751 22 22 17.0751 22 11H20ZM11 20C6.02944 20 2 15.9706 2 11H0C0 17.0751 4.92487 22 11 22V20ZM2 11C2 6.02944 6.02944 2 11 2V0C4.92487 0 0 4.92487 0 11H2ZM11 2C15.9706 2 20 6.02944 20 11H22C22 4.92487 17.0751 0 11 0V2ZM10 16.5556V16.5667H12V16.5556H10ZM11.9984 12.61C11.9902 12.4658 12.0291 12.3227 12.1093 12.2025L10.4452 11.0931C10.1246 11.5741 9.96887 12.1462 10.0016 12.7233L11.9984 12.61ZM12.1093 12.2025C12.1895 12.0823 12.3065 11.9913 12.4428 11.9434L11.7794 10.0566C11.2341 10.2484 10.7658 10.6121 10.4452 11.0931L12.1093 12.2025ZM12.4683 11.934C13.0305 11.719 13.5351 11.3765 13.9424 10.9333L12.4699 9.57991C12.2721 9.79516 12.027 9.96154 11.7539 10.066L12.4683 11.934ZM13.9424 10.9333C14.3498 10.4902 14.6486 9.95851 14.8156 9.38021L12.894 8.82554C12.813 9.10643 12.6678 9.36466 12.4699 9.57991L13.9424 10.9333ZM14.8156 9.38021C14.9825 8.80192 15.0129 8.19276 14.9044 7.60071L12.9372 7.96121C12.9899 8.24878 12.9751 8.54465 12.894 8.82554L14.8156 9.38021ZM14.9044 7.60071C14.7959 7.00866 14.5515 6.44988 14.1904 5.96835L12.5904 7.16835C12.7658 7.40223 12.8845 7.67364 12.9372 7.96121L14.9044 7.60071ZM14.1904 5.96835C13.8292 5.48682 13.3612 5.0957 12.8232 4.82577L11.9263 6.61338C12.1876 6.74449 12.4149 6.93447 12.5904 7.16835L14.1904 5.96835ZM12.8232 4.82577C12.2852 4.55584 11.6919 4.41448 11.09 4.41281L11.0845 6.4128C11.3768 6.41361 11.665 6.48227 11.9263 6.61338L12.8232 4.82577ZM11.09 4.41281C10.4881 4.41114 9.89404 4.54921 9.35456 4.81615L10.2415 6.60871C10.5036 6.47905 10.7921 6.41199 11.0845 6.4128L11.09 4.41281ZM9.35456 4.81615C8.81508 5.08309 8.34493 5.47161 7.98112 5.95113L9.57444 7.15998C9.75115 6.92708 9.97951 6.73837 10.2415 6.60871L9.35456 4.81615Z" fill="white"/>
</svg>
