<svg width="22" height="23" viewBox="0 0 22 23" fill="none" xmlns="http://www.w3.org/2000/svg">
<path d="M19.7125 6.88721L13.0463 1.70221C12.4612 1.2471 11.7412 1 11 1C10.2588 1 9.53876 1.2471 8.95375 1.70221L2.28625 6.88721C1.88555 7.19882 1.56137 7.59787 1.33844 8.0539C1.11552 8.50992 0.999761 9.01086 1 9.51846V18.5185C1 19.1815 1.26339 19.8174 1.73223 20.2862C2.20107 20.7551 2.83696 21.0185 3.5 21.0185H18.5C19.163 21.0185 19.7989 20.7551 20.2678 20.2862C20.7366 19.8174 21 19.1815 21 18.5185V9.51846C21 8.48971 20.525 7.51846 19.7125 6.88721Z" stroke="#111827" stroke-width="2" stroke-linecap="round" stroke-linejoin="round"/>
<path d="M15.9625 14.75C13.2 16.4162 8.72249 16.4162 5.96249 14.75" stroke="#111827" stroke-width="2" stroke-linecap="round" stroke-linejoin="round"/>
</svg>
