<svg width="22" height="20" viewBox="0 0 22 20" fill="none" xmlns="http://www.w3.org/2000/svg">
<path d="M12.2222 5.44444C12.2222 5.99673 12.6699 6.44444 13.2222 6.44444C13.7745 6.44444 14.2222 5.99673 14.2222 5.44444H12.2222ZM11 1V0V1ZM3.22222 1V0V1ZM1 3.22222H0H1ZM1 16.5556H0H1ZM14.2222 14.3333C14.2222 13.781 13.7745 13.3333 13.2222 13.3333C12.6699 13.3333 12.2222 13.781 12.2222 14.3333H14.2222ZM5.44444 8.88889C4.89216 8.88889 4.44444 9.3366 4.44444 9.88889C4.44444 10.4412 4.89216 10.8889 5.44444 10.8889V8.88889ZM21 9.88889L21.7071 10.596C22.0976 10.2055 22.0976 9.57231 21.7071 9.18178L21 9.88889ZM16.9596 12.5151C16.569 12.9056 16.569 13.5388 16.9596 13.9293C17.3501 14.3199 17.9832 14.3199 18.3738 13.9293L16.9596 12.5151ZM18.3738 5.84845C17.9832 5.45792 17.3501 5.45792 16.9596 5.84845C16.569 6.23897 16.569 6.87214 16.9596 7.26266L18.3738 5.84845ZM14.2222 5.44444V3.22222H12.2222V5.44444H14.2222ZM14.2222 3.22222C14.2222 2.36764 13.8827 1.54805 13.2785 0.943767L11.8642 2.35798C12.0935 2.58719 12.2222 2.89807 12.2222 3.22222H14.2222ZM13.2785 0.943767C12.6742 0.339483 11.8546 0 11 0L11 2C11.3242 2 11.635 2.12877 11.8642 2.35798L13.2785 0.943767ZM11 0H3.22222V2H11V0ZM3.22222 0C2.36764 0 1.54805 0.339483 0.943767 0.943767L2.35798 2.35798C2.58719 2.12877 2.89807 2 3.22222 2V0ZM0.943767 0.943767C0.339483 1.54805 0 2.36764 0 3.22222H2C2 2.89807 2.12877 2.58719 2.35798 2.35798L0.943767 0.943767ZM0 3.22222V16.5556H2V3.22222H0ZM0 16.5556C0 17.4101 0.339483 18.2297 0.943767 18.834L2.35798 17.4198C2.12877 17.1906 2 16.8797 2 16.5556H0ZM0.943767 18.834C1.54805 19.4383 2.36764 19.7778 3.22222 19.7778V17.7778C2.89807 17.7778 2.58719 17.649 2.35798 17.4198L0.943767 18.834ZM3.22222 19.7778H11V17.7778H3.22222V19.7778ZM11 19.7778C11.8546 19.7778 12.6742 19.4383 13.2785 18.834L11.8642 17.4198C11.635 17.649 11.3242 17.7778 11 17.7778V19.7778ZM13.2785 18.834C13.8827 18.2297 14.2222 17.4101 14.2222 16.5556H12.2222C12.2222 16.8797 12.0935 17.1906 11.8642 17.4198L13.2785 18.834ZM14.2222 16.5556V14.3333H12.2222V16.5556H14.2222ZM5.44444 10.8889H21V8.88889H5.44444V10.8889ZM18.3738 13.9293L21.7071 10.596L20.2929 9.18178L16.9596 12.5151L18.3738 13.9293ZM16.9596 7.26266L20.2929 10.596L21.7071 9.18178L18.3738 5.84845L16.9596 7.26266Z" fill="white"/>
</svg>
