<svg width="144" height="144" viewBox="0 0 144 144" fill="none" xmlns="http://www.w3.org/2000/svg">
<rect width="144" height="144" fill="white"/>
<path d="M112.686 53.0621V122.567H91.1151V108.86C89.6864 110.616 88.1361 112.146 86.3777 113.573C80.1613 112.713 74.1777 110.482 69.0159 106.918C63.8542 103.354 59.6023 98.6293 56.6025 93.1249C58.7038 96.5816 61.8789 99.258 65.6442 100.746C69.4095 102.235 73.5588 102.453 77.4602 101.369C81.3616 100.285 84.8013 97.9579 87.2555 94.7414C89.7098 91.5249 91.0441 87.5956 91.0552 83.5519V53.0621H112.686Z" fill="#7B61FF"/>
<path d="M84.9808 114.97C80.1625 118.939 74.4462 121.469 68.2486 122.247C62.051 123.024 55.7598 122.026 50.1082 119.37C44.4566 116.714 39.6774 112.509 36.3275 107.244C32.9776 101.98 31.195 95.8731 31.1875 89.6359V54.3357H52.7578V84.8494C52.7562 87.2234 53.2118 89.5756 54.1 91.7778V91.8616C54.4134 92.6311 54.786 93.3752 55.2144 94.0873C55.2144 94.195 55.3343 94.3146 55.4062 94.4223C58.4005 99.932 62.6486 104.663 67.8085 108.233C72.9683 111.804 78.7631 114.105 84.9808 114.97Z" fill="#190D51"/>
<path d="M113.413 32.5961C113.421 34.813 112.771 36.9826 111.544 38.8304C110.26 40.7808 108.406 42.2889 106.233 43.1495C104.061 44.0101 101.675 44.1813 99.4019 43.6399C97.1284 43.0985 95.0771 41.8708 93.5273 40.1238C91.9775 38.3768 91.0044 36.1954 90.7404 33.8765C90.6931 33.4793 90.6691 33.0798 90.6685 32.6798C90.6685 29.6649 91.8679 26.7735 94.0029 24.6416C96.1379 22.5097 99.0335 21.312 102.053 21.312C105.072 21.312 107.968 22.5097 110.103 24.6416C112.238 26.7735 113.437 29.6649 113.437 32.6798L113.413 32.5961Z" fill="#7B61FF"/>
<path d="M41.9122 45.3611C48.1996 45.3611 53.2966 40.2715 53.2966 33.9932C53.2966 27.7149 48.1996 22.6254 41.9122 22.6254C35.6248 22.6254 30.5278 27.7149 30.5278 33.9932C30.5278 40.2715 35.6248 45.3611 41.9122 45.3611Z" fill="#190D51"/>
</svg>
