<svg width="48" height="48" viewBox="0 0 48 48" fill="none" xmlns="http://www.w3.org/2000/svg">
<rect width="48" height="48" fill="white"/>
<path d="M37.562 17.6874V40.8556H30.3719V36.2868C29.8956 36.8721 29.3789 37.3821 28.7927 37.8577C26.7206 37.5711 24.7261 36.8275 23.0055 35.6394C21.2849 34.4513 19.8676 32.8764 18.8677 31.0416C19.5681 32.1939 20.6265 33.086 21.8816 33.5821C23.1367 34.0782 24.5198 34.1512 25.8202 33.7898C27.1207 33.4285 28.2673 32.6526 29.0853 31.5805C29.9034 30.5083 30.3482 29.1986 30.3519 27.8506V17.6874H37.562Z" fill="#7B61FF"/>
<path d="M28.3268 38.3233C26.7207 39.6464 24.8153 40.4897 22.7495 40.7488C20.6836 41.0079 18.5865 40.6753 16.7027 39.7899C14.8188 38.9045 13.2257 37.5028 12.1091 35.748C10.9925 33.9932 10.3983 31.9576 10.3958 29.8785V18.1118H17.5859V28.2831C17.5853 29.0744 17.7372 29.8585 18.0332 30.5925V30.6204C18.1377 30.8769 18.2619 31.125 18.4047 31.3623C18.4047 31.3982 18.4447 31.4381 18.4686 31.474C19.4668 33.3106 20.8828 34.8874 22.6027 36.0777C24.3227 37.2679 26.2543 38.0349 28.3268 38.3233Z" fill="#190D51"/>
<path d="M37.8045 10.8654C37.8071 11.6043 37.5903 12.3275 37.1814 12.9435C36.7535 13.5936 36.1354 14.0963 35.4112 14.3832C34.687 14.67 33.8919 14.7271 33.1341 14.5466C32.3762 14.3662 31.6925 13.9569 31.1758 13.3746C30.6592 12.7923 30.3349 12.0651 30.2469 11.2922C30.2311 11.1598 30.2231 11.0266 30.2229 10.8933C30.2229 9.8883 30.6227 8.92448 31.3344 8.21386C32.046 7.50323 33.0113 7.104 34.0177 7.104C35.0242 7.104 35.9894 7.50323 36.701 8.21386C37.4127 8.92448 37.8125 9.8883 37.8125 10.8933L37.8045 10.8654Z" fill="#7B61FF"/>
<path d="M13.9708 15.1203C16.0666 15.1203 17.7656 13.4238 17.7656 11.331C17.7656 9.23827 16.0666 7.54175 13.9708 7.54175C11.875 7.54175 10.176 9.23827 10.176 11.331C10.176 13.4238 11.875 15.1203 13.9708 15.1203Z" fill="#190D51"/>
</svg>
