<svg width="26" height="20" viewBox="0 0 26 20" fill="none" xmlns="http://www.w3.org/2000/svg">
<path d="M13 13.75C15.0711 13.75 16.75 12.0711 16.75 10C16.75 7.92893 15.0711 6.25 13 6.25C10.9289 6.25 9.25 7.92893 9.25 10C9.25 12.0711 10.9289 13.75 13 13.75Z" stroke="#111827" stroke-width="2" stroke-linecap="round" stroke-linejoin="round"/>
<path d="M1.75 6.25H5.5V13.75H1.75V6.25Z" stroke="#111827" stroke-width="2" stroke-linecap="round" stroke-linejoin="round"/>
<path d="M20.5 6.25H24.25V13.75H20.5V6.25Z" stroke="#111827" stroke-width="2" stroke-linecap="round" stroke-linejoin="round"/>
<path d="M21.75 1.25H4.25C2.86929 1.25 1.75 2.36929 1.75 3.75V16.25C1.75 17.6307 2.86929 18.75 4.25 18.75H21.75C23.1307 18.75 24.25 17.6307 24.25 16.25V3.75C24.25 2.36929 23.1307 1.25 21.75 1.25Z" stroke="#111827" stroke-width="2" stroke-linecap="round" stroke-linejoin="round"/>
<path d="M13 1.25V18.75" stroke="#111827" stroke-width="2" stroke-linecap="round" stroke-linejoin="round"/>
</svg>
