<svg width="22" height="22" viewBox="0 0 22 22" fill="none" xmlns="http://www.w3.org/2000/svg">
<path d="M10.9857 11C11.5994 11 12.0968 10.5025 12.0968 9.88889C12.0968 9.27524 11.5994 8.77778 10.9857 8.77778C10.3721 8.77778 9.8746 9.27524 9.8746 9.88889C9.8746 10.5025 10.3721 11 10.9857 11ZM10.9857 11V13.7778M10.9857 1C13.5811 3.29619 16.9685 4.49174 20.4302 4.33333C20.9341 6.04779 21.0884 7.84607 20.8836 9.62131C20.6789 11.3966 20.1194 13.1125 19.2384 14.6673C18.3574 16.222 17.1728 17.5838 15.7551 18.6716C14.3374 19.7595 12.7155 20.5513 10.9857 21C9.25595 20.5513 7.63402 19.7595 6.21632 18.6716C4.79861 17.5838 3.61405 16.222 2.73304 14.6673C1.85202 13.1125 1.29253 11.3966 1.08779 9.62131C0.883062 7.84607 1.03727 6.04779 1.54127 4.33333C5.00296 4.49174 8.39034 3.29619 10.9857 1Z" stroke="white" stroke-width="2" stroke-linecap="round" stroke-linejoin="round"/>
</svg>
