<svg width="22" height="22" viewBox="0 0 22 22" fill="none" xmlns="http://www.w3.org/2000/svg">
<path d="M9.13889 19.5367C9.61222 21.4878 12.3878 21.4878 12.8611 19.5367C12.9321 19.2436 13.0714 18.9714 13.2675 18.7422C13.4636 18.5131 13.711 18.3335 13.9896 18.2181C14.2682 18.1026 14.5702 18.0546 14.8709 18.0779C15.1716 18.1012 15.4625 18.1952 15.72 18.3522C17.4344 19.3967 19.3978 17.4344 18.3533 15.7189C18.1966 15.4615 18.1027 15.1707 18.0795 14.8703C18.0562 14.5698 18.1042 14.268 18.2195 13.9896C18.3348 13.7111 18.5142 13.4638 18.743 13.2677C18.9719 13.0716 19.2438 12.9323 19.5367 12.8611C21.4878 12.3878 21.4878 9.61222 19.5367 9.13889C19.2436 9.06787 18.9714 8.92864 18.7422 8.73254C18.5131 8.53644 18.3335 8.28901 18.2181 8.01039C18.1026 7.73176 18.0546 7.42982 18.0779 7.12913C18.1012 6.82844 18.1952 6.5375 18.3522 6.28C19.3967 4.56556 17.4344 2.60222 15.7189 3.64667C15.4615 3.80344 15.1707 3.89728 14.8703 3.92054C14.5698 3.9438 14.268 3.89582 13.9896 3.78052C13.7111 3.66522 13.4638 3.48584 13.2677 3.25697C13.0716 3.02809 12.9323 2.75618 12.8611 2.46333C12.3878 0.51222 9.61222 0.51222 9.13889 2.46333C9.06787 2.75644 8.92864 3.02864 8.73254 3.25778C8.53644 3.48691 8.28901 3.6665 8.01039 3.78194C7.73176 3.89737 7.42982 3.94539 7.12913 3.92208C6.82844 3.89876 6.5375 3.80478 6.28 3.64778C4.56556 2.60333 2.60222 4.56555 3.64667 6.28111C3.80345 6.53851 3.89728 6.82926 3.92054 7.12975C3.9438 7.43023 3.89583 7.73197 3.78052 8.01042C3.66522 8.28888 3.48585 8.5362 3.25697 8.73228C3.0281 8.92836 2.75618 9.06767 2.46333 9.13889C0.512222 9.61222 0.512222 12.3878 2.46333 12.8611C2.75644 12.9321 3.02864 13.0714 3.25778 13.2675C3.48691 13.4636 3.66651 13.711 3.78194 13.9896C3.89738 14.2682 3.94539 14.5702 3.92208 14.8709C3.89876 15.1716 3.80478 15.4625 3.64778 15.72C2.60333 17.4344 4.56556 19.3978 6.28111 18.3533C7.39222 17.6778 8.83222 18.2756 9.13889 19.5367Z" stroke="white" stroke-width="2" stroke-linecap="round" stroke-linejoin="round"/>
<path d="M11 7.66667C12.8409 7.66667 14.3333 9.15905 14.3333 11C14.3333 12.8409 12.8409 14.3333 11 14.3333C9.15905 14.3333 7.66667 12.8409 7.66667 11C7.66667 9.15905 9.15905 7.66667 11 7.66667Z" stroke="white" stroke-width="2" stroke-linecap="round" stroke-linejoin="round"/>
</svg>
