<svg width="1000" height="1000" viewBox="0 0 1000 1000" fill="none" xmlns="http://www.w3.org/2000/svg">
<rect width="1000" height="1000" fill="white"/>
<path d="M782.54 368.487V851.158H632.746V755.974C622.823 768.167 612.058 778.794 599.847 788.701C556.677 782.732 515.124 767.239 479.279 742.486C443.433 717.734 413.907 684.925 393.075 646.7C407.667 670.705 429.716 689.291 455.864 699.627C482.012 709.963 510.827 711.482 537.919 703.954C565.012 696.426 588.899 680.263 605.943 657.926C622.986 635.59 632.252 608.303 632.329 580.222V368.487H782.54Z" fill="#7B61FF"/>
<path d="M590.145 798.403C556.684 825.967 516.988 843.537 473.949 848.934C430.91 854.331 387.221 847.404 347.974 828.958C308.727 810.512 275.537 781.309 252.274 744.75C229.011 708.192 216.632 665.785 216.58 622.471V377.331H366.374V589.231C366.362 605.718 369.527 622.052 375.694 637.345V637.927C377.871 643.271 380.458 648.438 383.434 653.383C383.434 654.131 384.266 654.962 384.765 655.71C405.56 693.971 435.06 726.823 470.892 751.619C506.725 776.415 546.966 792.395 590.145 798.403Z" fill="#190D51"/>
<path d="M787.592 226.362C787.646 241.757 783.128 256.824 774.61 269.656C765.696 283.2 752.819 293.673 737.731 299.65C722.644 305.626 706.079 306.815 690.291 303.055C674.503 299.296 660.258 290.77 649.495 278.638C638.732 266.506 631.975 251.357 630.141 235.253C629.813 232.495 629.647 229.721 629.642 226.943C629.642 206.006 637.971 185.927 652.798 171.122C667.624 156.317 687.733 148 708.7 148C729.668 148 749.777 156.317 764.603 171.122C779.429 185.927 787.758 206.006 787.758 226.943L787.592 226.362Z" fill="#7B61FF"/>
<path d="M291.058 315.007C334.721 315.007 370.116 279.663 370.116 236.064C370.116 192.464 334.721 157.12 291.058 157.12C247.396 157.12 212 192.464 212 236.064C212 279.663 247.396 315.007 291.058 315.007Z" fill="#190D51"/>
</svg>
