<svg width="800" height="800" viewBox="0 0 800 800" fill="none" xmlns="http://www.w3.org/2000/svg">
<path d="M637.145 208.809V606.809H513.628V528.323C505.446 538.377 496.569 547.139 486.5 555.309C450.903 550.386 416.64 537.611 387.082 517.201C357.525 496.791 333.178 469.737 316 438.218C328.032 458.012 346.214 473.337 367.775 481.86C389.336 490.383 413.096 491.636 435.436 485.428C457.776 479.221 477.473 465.893 491.526 447.475C505.58 429.056 513.221 406.556 513.284 383.401V208.809H637.145Z" fill="#7B61FF"/>
<path d="M478.5 563.309C450.909 586.037 418.176 600.525 382.687 604.976C347.198 609.426 311.173 603.714 278.811 588.504C246.448 573.294 219.081 549.213 199.899 519.068C180.717 488.923 170.509 453.955 170.466 418.239V216.101H293.983V390.83C293.974 404.424 296.583 417.894 301.669 430.504V430.984C303.463 435.39 305.597 439.651 308.05 443.728C308.05 444.345 308.736 445.03 309.148 445.647C326.295 477.197 350.62 504.285 380.167 524.732C409.713 545.178 442.896 558.354 478.5 563.309Z" fill="#190D51"/>
<path d="M641.31 91.6154C641.355 104.31 637.63 116.734 630.606 127.315C623.255 138.483 612.637 147.119 600.197 152.047C587.756 156.975 574.097 157.956 561.078 154.855C548.059 151.755 536.313 144.725 527.439 134.721C518.564 124.717 512.992 112.226 511.48 98.9472C511.21 96.6731 511.072 94.3852 511.068 92.0951C511.068 74.8308 517.937 58.2736 530.162 46.0659C542.387 33.8582 558.969 27 576.258 27C593.547 27 610.129 33.8582 622.354 46.0659C634.58 58.2736 641.448 74.8308 641.448 92.0951L641.31 91.6154Z" fill="#7B61FF"/>
<path d="M231.879 164.71C267.883 164.71 297.069 135.566 297.069 99.6153C297.069 63.6643 267.883 34.5203 231.879 34.5203C195.876 34.5203 166.69 63.6643 166.69 99.6153C166.69 135.566 195.876 164.71 231.879 164.71Z" fill="#190D51"/>
<path d="M210.832 682.625V735.809H197.296V729.089C195.568 731.393 193.296 733.217 190.48 734.561C187.728 735.841 184.72 736.481 181.456 736.481C177.296 736.481 173.616 735.617 170.416 733.889C167.216 732.097 164.688 729.505 162.832 726.113C161.04 722.657 160.144 718.561 160.144 713.825V682.625H173.584V711.905C173.584 716.129 174.64 719.393 176.752 721.697C178.864 723.937 181.744 725.057 185.392 725.057C189.104 725.057 192.016 723.937 194.128 721.697C196.24 719.393 197.296 716.129 197.296 711.905V682.625H210.832ZM176.848 676.289C175.056 676.289 173.552 675.681 172.336 674.465C171.12 673.249 170.512 671.745 170.512 669.953C170.512 668.161 171.12 666.657 172.336 665.441C173.552 664.161 175.056 663.521 176.848 663.521C178.64 663.521 180.144 664.161 181.36 665.441C182.64 666.657 183.28 668.161 183.28 669.953C183.28 671.745 182.64 673.249 181.36 674.465C180.144 675.681 178.64 676.289 176.848 676.289ZM194.608 676.289C192.816 676.289 191.312 675.681 190.096 674.465C188.88 673.249 188.272 671.745 188.272 669.953C188.272 668.161 188.88 666.657 190.096 665.441C191.312 664.161 192.816 663.521 194.608 663.521C196.4 663.521 197.904 664.161 199.12 665.441C200.4 666.657 201.04 668.161 201.04 669.953C201.04 671.745 200.4 673.249 199.12 674.465C197.904 675.681 196.4 676.289 194.608 676.289ZM286.493 690.881C288.221 688.065 290.461 685.857 293.213 684.257C296.029 682.657 299.229 681.857 302.813 681.857V695.969H299.261C295.037 695.969 291.837 696.961 289.661 698.945C287.549 700.929 286.493 704.385 286.493 709.313V735.809H273.053V682.625H286.493V690.881ZM374.265 690.401C375.993 687.841 378.361 685.761 381.369 684.161C384.441 682.561 387.929 681.761 391.833 681.761C396.377 681.761 400.473 682.881 404.121 685.121C407.833 687.361 410.745 690.561 412.857 694.721C415.033 698.817 416.121 703.585 416.121 709.025C416.121 714.465 415.033 719.297 412.857 723.521C410.745 727.681 407.833 730.913 404.121 733.217C400.473 735.521 396.377 736.673 391.833 736.673C387.865 736.673 384.377 735.905 381.369 734.369C378.425 732.769 376.057 730.721 374.265 728.225V735.809H360.825V664.769H374.265V690.401ZM402.393 709.025C402.393 705.825 401.721 703.073 400.377 700.769C399.097 698.401 397.369 696.609 395.193 695.393C393.081 694.177 390.777 693.569 388.281 693.569C385.849 693.569 383.545 694.209 381.369 695.489C379.257 696.705 377.529 698.497 376.185 700.865C374.905 703.233 374.265 706.017 374.265 709.217C374.265 712.417 374.905 715.201 376.185 717.569C377.529 719.937 379.257 721.761 381.369 723.041C383.545 724.257 385.849 724.865 388.281 724.865C390.777 724.865 393.081 724.225 395.193 722.945C397.369 721.665 399.097 719.841 400.377 717.473C401.721 715.105 402.393 712.289 402.393 709.025ZM471.392 709.025C471.392 703.649 472.448 698.881 474.56 694.721C476.736 690.561 479.648 687.361 483.296 685.121C487.008 682.881 491.136 681.761 495.68 681.761C499.648 681.761 503.104 682.561 506.048 684.161C509.056 685.761 511.456 687.777 513.248 690.209V682.625H526.784V735.809H513.248V728.033C511.52 730.529 509.12 732.609 506.048 734.273C503.04 735.873 499.552 736.673 495.584 736.673C491.104 736.673 487.008 735.521 483.296 733.217C479.648 730.913 476.736 727.681 474.56 723.521C472.448 719.297 471.392 714.465 471.392 709.025ZM513.248 709.217C513.248 705.953 512.608 703.169 511.328 700.865C510.048 698.497 508.32 696.705 506.144 695.489C503.968 694.209 501.632 693.569 499.136 693.569C496.64 693.569 494.336 694.177 492.224 695.393C490.112 696.609 488.384 698.401 487.04 700.769C485.76 703.073 485.12 705.825 485.12 709.025C485.12 712.225 485.76 715.041 487.04 717.473C488.384 719.841 490.112 721.665 492.224 722.945C494.4 724.225 496.704 724.865 499.136 724.865C501.632 724.865 503.968 724.257 506.144 723.041C508.32 721.761 510.048 719.969 511.328 717.665C512.608 715.297 513.248 712.481 513.248 709.217ZM618.342 681.857C624.678 681.857 629.798 683.873 633.702 687.905C637.606 691.873 639.558 697.441 639.558 704.609V735.809H626.118V706.433C626.118 702.209 625.062 698.977 622.95 696.737C620.838 694.433 617.958 693.281 614.31 693.281C610.598 693.281 607.654 694.433 605.478 696.737C603.366 698.977 602.31 702.209 602.31 706.433V735.809H588.87V682.625H602.31V689.249C604.102 686.945 606.374 685.153 609.126 683.873C611.942 682.529 615.014 681.857 618.342 681.857Z" fill="#190D51"/>
</svg>
