<svg width="377" height="110" viewBox="0 0 377 110" fill="none" xmlns="http://www.w3.org/2000/svg">
<path d="M129.457 35.712C126.577 34.992 124.129 34.704 121.681 34.704C112.177 34.704 105.409 39.456 102.385 46.512L101.377 36.144H84.8169V107.136H102.385V72.576C102.385 58.752 110.305 51.984 122.977 51.984H129.457V35.712Z" fill="white"/>
<path d="M159.06 107.136L158.772 96.048C162.948 104.256 172.02 109.008 182.676 109.008C203.124 109.008 216.516 93.888 216.516 72C216.516 49.536 204.132 33.696 183.828 33.696C173.028 33.696 163.524 38.448 158.916 46.368V0H141.348V107.136H159.06ZM159.06 71.28C159.06 58.464 166.98 49.536 179.076 49.536C191.46 49.536 198.804 58.608 198.804 71.28C198.804 83.952 191.46 92.88 179.076 92.88C166.98 92.88 159.06 84.096 159.06 71.28Z" fill="white"/>
<path d="M251.672 109.008C262.76 109.008 272.408 103.968 275.432 96.624V107.136H292.136V63.936C292.136 44.208 280.328 33.84 261.176 33.84C241.88 33.84 229.208 43.92 229.208 59.328H244.184C244.184 51.84 249.944 47.52 260.312 47.52C269.24 47.52 275 51.408 275 61.056V62.64L253.688 64.224C236.84 65.52 227.336 73.728 227.336 86.832C227.336 100.224 236.552 109.008 251.672 109.008ZM257.432 95.76C249.512 95.76 245.192 92.592 245.192 86.112C245.192 80.352 249.368 76.752 260.312 75.744L275.144 74.592V78.336C275.144 89.28 268.232 95.76 257.432 95.76Z" fill="white"/>
<path d="M326.963 107.136V68.832C326.963 57.312 333.587 49.824 344.387 49.824C353.459 49.824 359.363 55.584 359.363 67.536V107.136H376.931V63.36C376.931 44.928 367.715 33.84 349.859 33.84C340.211 33.84 331.571 38.016 327.107 45.216V36H309.395V107.136H326.963Z" fill="white"/>
<path d="M67.291 50.0049V106.932H49.6239V95.7063C48.4536 97.1444 47.1838 98.3977 45.7437 99.5662C40.6521 98.8621 35.7513 97.0349 31.5235 94.1155C27.2958 91.1961 23.8133 87.3266 21.3564 82.8182C23.0774 85.6494 25.6779 87.8415 28.7619 89.0605C31.8459 90.2795 35.2444 90.4588 38.4398 89.5709C41.6352 88.683 44.4525 86.7767 46.4626 84.1422C48.4728 81.5078 49.5656 78.2895 49.5748 74.9775V50.0049H67.291Z" fill="white"/>
<path d="M44.5995 100.71C40.6531 103.961 35.9712 106.034 30.8951 106.67C25.8189 107.307 20.6661 106.49 16.0372 104.314C11.4082 102.139 7.49381 98.6943 4.75008 94.3825C2.00635 90.0707 0.546323 85.069 0.540149 79.9604V51.0479H18.2073V76.0401C18.206 77.9846 18.5792 79.9111 19.3066 81.7148V81.7834C19.5633 82.4137 19.8685 83.0231 20.2194 83.6064C20.2194 83.6946 20.3176 83.7926 20.3765 83.8808C22.829 88.3934 26.3084 92.268 30.5346 95.1926C34.7607 98.1171 39.5069 100.002 44.5995 100.71Z" fill="white"/>
<path d="M66.6291 34.2422C66.6355 36.058 66.1026 37.835 65.0979 39.3485C64.0466 40.9459 62.5278 42.1812 60.7484 42.886C58.9689 43.5909 57.0152 43.7311 55.1531 43.2877C53.291 42.8442 51.6109 41.8387 50.3415 40.4078C49.0721 38.9769 48.2751 37.1902 48.0589 35.2909C48.0202 34.9656 48.0005 34.6384 48 34.3108C48 31.8414 48.9824 29.4732 50.731 27.7271C52.4797 25.981 54.8514 25 57.3244 25C59.7973 25 62.169 25.981 63.9177 27.7271C65.6663 29.4732 66.6487 31.8414 66.6487 34.3108L66.6291 34.2422Z" fill="white"/>
<path d="M9.32434 43.6973C14.474 43.6973 18.6487 39.5287 18.6487 34.3865C18.6487 29.2443 14.474 25.0757 9.32434 25.0757C4.17465 25.0757 0 29.2443 0 34.3865C0 39.5287 4.17465 43.6973 9.32434 43.6973Z" fill="white"/>
</svg>
